Coordinates
version=1
nRows=7
nColumns=33
inDegrees=yes

Units are S.I. units (second, meters, Newtons, ...)
Angles are in degrees.

endheader
time	ground_thorax_rot_x	ground_thorax_rot_y	ground_thorax_rot_z	ground_thorax_tx	ground_thorax_ty	ground_thorax_tz	clav_prot_r	clav_elev_r	scapula_abduction_r	scapula_elevation_r	scapula_upward_rot_r	scapula_winging_r	shoulder_elv_r	plane_of_elev_r	axial_rot_r	elbow_flexion_r	pro_sup_r	wrist_flex_r	wrist_dev_r	clav_prot_l	clav_elev_l	scapula_abduction_l	scapula_elevation_l	scapula_upward_rot_l	scapula_winging_l	shoulder_elv_l	plane_of_elev_l	axial_rot_l	elbow_flexion_l	pro_sup_l	wrist_flex_l	wrist_dev_l
      3.18000000	    -39.08177517	     -1.89254792	     10.35471450	   -227.81082138	    847.88042558	      8.07836861	      8.90415809	    -45.00000000	     40.29950435	    -45.00000000	    -45.00000000	  -2978.52931165	  -1543.13338188	    143.90177825	    179.99999979	    729.85626993	     54.11022389	     25.55794785	     10.00515301	     15.13527247	     38.80015549	    -38.66077142	    -45.00000000	    -42.41631869	   4045.50749021	  -2806.48395371	     24.97587497	    -32.59377471	    731.49836515	     20.37850921	      2.32897966	    -19.97231173
      3.19000000	    -38.96455614	     -1.77318944	     10.21764842	   -229.09308780	    848.38737623	      8.20302723	      9.26121558	    -45.00000000	     40.37618398	    -45.00000000	    -45.00000000	  -2978.83379292	  -1543.07752313	    143.79838116	    179.99999979	    729.96913534	     55.11992423	     25.83871938	      9.77345050	     15.52721331	     37.91678236	    -38.76532322	    -45.00000000	    -44.55558356	   4045.04668864	  -2805.89484628	     25.45154042	    -29.47805678	    731.57834848	     23.29886862	      1.67595809	    -19.68776674
      3.20000000	    -38.99214305	     -1.67705237	     10.14679925	   -230.30576223	    848.85223857	      8.31955065	      9.21529070	    -45.00000000	     40.43695252	    -45.00000000	    -45.00000000	  -2978.93657933	  -1543.15566949	    143.88231559	    179.99999979	    729.87825715	     55.68442251	     25.93746322	      9.67614240	     15.42185193	     37.99593527	    -38.69815461	    -45.00000000	    -43.95112452	   4045.39519961	  -2806.24465563	     25.40798807	    -30.98505262	    731.68686516	     25.30139863	      1.21268586	    -19.45533753
      3.21000000	    -39.00714067	     -1.64000631	     10.08638118	   -231.44938054	    849.27466079	      8.42740908	      9.23632957	    -45.00000000	     40.36862640	    -45.00000000	    -45.00000000	  -2979.00066266	  -1543.19621687	    143.91404467	    179.99999979	    729.80915311	     56.30117231	     25.99493393	      9.49533844	     15.38768444	     37.99138591	    -38.54914437	    -45.00000000	    -43.99714764	   4045.45834995	  -2806.24916417	     25.45374511	    -31.31791492	    731.83086339	     27.14254959	      0.92430094	    -19.31073956
      3.22000000	    -39.07856912	     -1.64344127	     10.02631655	   -232.53152328	    849.65825317	      8.52635002	      9.05579415	    -45.00000000	     40.29606014	    -45.00000000	    -45.00000000	  -2978.93261902	  -1543.22668103	    144.12804329	    179.99999979	    729.89991000	     56.76788811	     25.88101765	      9.18418571	     15.09278117	     38.46073606	    -38.43240734	    -45.00000000	    -43.50064519	   4045.46464333	  -2806.21121053	     25.04877129	    -32.10468328	    732.01431426	     28.56023397	      1.05073147	    -19.45192721
      3.23000000	    -39.06226515	     -1.64505376	      9.96101635	   -233.55671648	    850.00742824	      8.61525121	      9.19654240	    -45.00000000	     40.27343170	    -45.00000000	    -45.00000000	  -2979.05574781	  -1543.28892471	    144.08497119	    179.99999979	    729.75856445	     57.44321929	     25.99489642	      9.06338702	     15.23007479	     38.16732135	    -38.32226483	    -45.00000000	    -44.04834605	   4045.53566763	  -2806.15961530	     25.34440867	    -31.92892450	    732.11470420	     30.11054329	      0.67278424	    -19.18860806
      3.24000000	    -39.11799779	     -1.41354977	      9.68731377	   -234.52461972	    850.32525865	      8.69205605	      9.05156011	    -45.00000000	     40.21009918	    -45.00000000	    -45.00000000	  -2978.96397601	  -1543.25442034	    144.27256561	    179.99999979	    729.83907905	     57.90688497	     25.94473775	      8.73737336	     14.98087849	     38.59398644	    -38.11088611	    -45.00000000	    -43.23463807	   4045.21183497	  -2806.07454248	     24.85602257	    -32.18976868	    732.24075913	     31.36514244	      0.73957050	    -19.28331111
